<svg xmlns="http://www.w3.org/2000/svg" width="472" height="256" viewBox="0 0 472 256">
    <defs>
        <style>
            .cls-1,.cls-2,.cls-6{fill:#fff}.cls-1{opacity:.253}.cls-2{opacity:.42}.cls-3{fill:#fdab11}.cls-4{fill:#26547c}.cls-5{fill:#2f5072}.cls-7{fill:#ff5e5e}.cls-8{fill:#f0f5f7}.cls-9{fill:#0fa572}
        </style>
    </defs>
    <g id="Group_764" data-name="Group 764" transform="translate(-484 -156)">
        <rect id="Rectangle_749" width="472" height="256" class="cls-1" data-name="Rectangle 749" rx="128" transform="translate(484 156)"/>
        <rect id="Rectangle_743" width="372" height="202" class="cls-2" data-name="Rectangle 743" rx="101" transform="translate(537 183)"/>
        <g id="Group_511" data-name="Group 511" transform="translate(872.773 314.742)">
            <path id="Path_1166" d="M71.056 15.8a2.652 2.652 0 1 1 0 5.3H57.2a2.652 2.652 0 1 1 0-5.3z" class="cls-3" data-name="Path 1166" transform="translate(-29.499 -15.798)"/>
            <path id="Path_1167" d="M46.24 27.335a2.672 2.672 0 0 1 0 5.342H16.605a2.671 2.671 0 1 1 0-5.342z" class="cls-3" data-name="Path 1167" transform="translate(-13.932 -20.222)"/>
        </g>
        <g id="Group_525" data-name="Group 525" transform="translate(550.624 220.204)">
            <path id="Path_1166-2" d="M71.056 15.8a2.652 2.652 0 1 1 0 5.3H57.2a2.652 2.652 0 1 1 0-5.3z" class="cls-3" data-name="Path 1166" transform="translate(-29.499 -15.798)"/>
            <path id="Path_1167-2" d="M46.24 27.335a2.672 2.672 0 0 1 0 5.342H16.605a2.671 2.671 0 1 1 0-5.342z" class="cls-3" data-name="Path 1167" transform="translate(-13.932 -20.222)"/>
        </g>
        <path id="Path_1158" d="M401.017 249.517a6.752 6.752 0 0 1 1.922 4.657 6.585 6.585 0 0 1-1.983 4.718l-.059.059a6.642 6.642 0 0 1-9.345-.059l-.059-.062a6.716 6.716 0 0 1-1.9-4.657 6.6 6.6 0 0 1 1.954-4.686l.062-.091a6.638 6.638 0 0 1 9.342.059zm-1.983 4.657a2.882 2.882 0 0 0-.813-1.954 2.764 2.764 0 0 0-1.984-.81 2.723 2.723 0 0 0-1.922.78 2.9 2.9 0 0 0-.842 1.983 2.833 2.833 0 0 0 .813 1.954 2.744 2.744 0 0 0 1.951.81 2.865 2.865 0 0 0 1.984-.781 2.96 2.96 0 0 0 .813-1.983z" class="cls-4" data-name="Path 1158" transform="translate(156.079 93.528)"/>
        <g id="Group_762" data-name="Group 762" transform="translate(585.011 191)">
            <g id="Group_753" data-name="Group 753">
                <g id="Group_718" data-name="Group 718">
                    <circle id="Ellipse_221" cx="5.28" cy="5.28" r="5.28" class="cls-5" data-name="Ellipse 221" transform="translate(181.64 107.92)"/>
                </g>
                <g id="Group_719" data-name="Group 719">
                    <circle id="Ellipse_222" cx="5.28" cy="5.28" r="5.28" class="cls-5" data-name="Ellipse 222" transform="translate(73.27 107.92)"/>
                </g>
                <g id="Group_720" data-name="Group 720">
                    <path id="Path_2008" d="M132.83 170.72a51.414 51.414 0 0 1-51.41-51.41V66.37A14.472 14.472 0 0 1 95.89 51.9h73.88a14.472 14.472 0 0 1 14.47 14.47v52.94a51.4 51.4 0 0 1-51.41 51.41z" class="cls-6" data-name="Path 2008"/>
                    <path id="Path_2009" d="M132.83 172.57a53.317 53.317 0 0 1-53.26-53.26V66.37a16.337 16.337 0 0 1 16.32-16.32h73.88a16.337 16.337 0 0 1 16.32 16.32v52.94a53.324 53.324 0 0 1-53.26 53.26zM95.89 53.74a12.643 12.643 0 0 0-12.63 12.63v52.94a49.57 49.57 0 1 0 99.14 0V66.37a12.643 12.643 0 0 0-12.63-12.63z" class="cls-5" data-name="Path 2009"/>
                </g>
                <g id="Group_721" data-name="Group 721">
                    <path id="Path_2010" d="M91.08 72.21h-9.69a5.736 5.736 0 0 1-5.73-5.73V60.7a5.736 5.736 0 0 1 5.73-5.73h9.69a5.736 5.736 0 0 1 5.73 5.73v5.78a5.723 5.723 0 0 1-5.73 5.73z" class="cls-5" data-name="Path 2010"/>
                </g>
                <g id="Group_722" data-name="Group 722">
                    <path id="Path_2011" d="M106.42 72.21h-6.89a5.17 5.17 0 0 1-5.17-5.17v-6.89a5.17 5.17 0 0 1 5.17-5.17h6.89a5.17 5.17 0 0 1 5.17 5.17v6.89a5.17 5.17 0 0 1-5.17 5.17z" class="cls-5" data-name="Path 2011"/>
                </g>
                <g id="Group_723" data-name="Group 723">
                    <path id="Path_2012" d="M121.19 72.21h-6.89a5.17 5.17 0 0 1-5.17-5.17v-6.89a5.17 5.17 0 0 1 5.17-5.17h6.89a5.17 5.17 0 0 1 5.17 5.17v6.89a5.158 5.158 0 0 1-5.17 5.17z" class="cls-5" data-name="Path 2012"/>
                </g>
                <g id="Group_724" data-name="Group 724">
                    <path id="Path_2013" d="M135.97 72.21h-6.89a5.17 5.17 0 0 1-5.17-5.17v-6.89a5.17 5.17 0 0 1 5.17-5.17h6.89a5.17 5.17 0 0 1 5.17 5.17v6.89a5.158 5.158 0 0 1-5.17 5.17z" class="cls-5" data-name="Path 2013"/>
                </g>
                <g id="Group_725" data-name="Group 725">
                    <path id="Path_2014" d="M150.75 72.21h-6.89a5.17 5.17 0 0 1-5.17-5.17v-6.89a5.17 5.17 0 0 1 5.17-5.17h6.89a5.17 5.17 0 0 1 5.17 5.17v6.89a5.164 5.164 0 0 1-5.17 5.17z" class="cls-5" data-name="Path 2014"/>
                </g>
                <g id="Group_726" data-name="Group 726">
                    <path id="Path_2015" d="M121.19 66.05h-6.89a5.17 5.17 0 0 1-5.17-5.17v-6.89a5.17 5.17 0 0 1 5.17-5.17h6.89a5.17 5.17 0 0 1 5.17 5.17v6.89a5.158 5.158 0 0 1-5.17 5.17z" class="cls-5" data-name="Path 2015"/>
                </g>
                <g id="Group_727" data-name="Group 727">
                    <path id="Path_2016" d="M135.97 66.05h-6.89a5.17 5.17 0 0 1-5.17-5.17v-6.89a5.17 5.17 0 0 1 5.17-5.17h6.89a5.17 5.17 0 0 1 5.17 5.17v6.89a5.158 5.158 0 0 1-5.17 5.17z" class="cls-5" data-name="Path 2016"/>
                </g>
                <g id="Group_728" data-name="Group 728">
                    <path id="Path_2017" d="M150.75 66.05h-6.89a5.17 5.17 0 0 1-5.17-5.17v-6.89a5.17 5.17 0 0 1 5.17-5.17h6.89a5.17 5.17 0 0 1 5.17 5.17v6.89a5.164 5.164 0 0 1-5.17 5.17z" class="cls-5" data-name="Path 2017"/>
                </g>
                <g id="Group_729" data-name="Group 729">
                    <path id="Path_2018" d="M165.53 72.21h-6.89a5.17 5.17 0 0 1-5.17-5.17v-6.89a5.17 5.17 0 0 1 5.17-5.17h6.89a5.17 5.17 0 0 1 5.17 5.17v6.89a5.17 5.17 0 0 1-5.17 5.17z" class="cls-5" data-name="Path 2018"/>
                </g>
                <g id="Group_730" data-name="Group 730">
                    <path id="Path_2019" d="M160.54 82.06H147a10.162 10.162 0 0 1-10.16-10.16V58.36A10.162 10.162 0 0 1 147 48.2h13.54a10.162 10.162 0 0 1 10.16 10.16V71.9a10.162 10.162 0 0 1-10.16 10.16z" class="cls-5" data-name="Path 2019"/>
                </g>
                <g id="Group_731" data-name="Group 731">
                    <path id="Path_2020" d="M165.71 70.75h-16.4a12.688 12.688 0 0 1-12.69-12.69V40.61a12.688 12.688 0 0 1 12.69-12.69h16.4a12.688 12.688 0 0 1 12.69 12.69v17.44a12.7 12.7 0 0 1-12.69 12.7z" class="cls-5" data-name="Path 2020"/>
                </g>
                <g id="Group_732" data-name="Group 732">
                    <path id="Path_2021" d="M141.15 93.1h-13.54a10.162 10.162 0 0 1-10.16-10.16V69.4a10.162 10.162 0 0 1 10.16-10.16h13.54a10.162 10.162 0 0 1 10.16 10.16v13.54a10.162 10.162 0 0 1-10.16 10.16z" class="cls-5" data-name="Path 2021"/>
                </g>
                <g id="Group_733" data-name="Group 733">
                    <path id="Path_2022" d="M137.46 69.09h-13.54a10.162 10.162 0 0 1-10.16-10.16V45.39a10.162 10.162 0 0 1 10.16-10.16h13.54a10.162 10.162 0 0 1 10.16 10.16v13.54a10.162 10.162 0 0 1-10.16 10.16z" class="cls-5" data-name="Path 2022"/>
                </g>
                <g id="Group_734" data-name="Group 734">
                    <path id="Path_2023" d="M102.98 69.09H89.44a10.162 10.162 0 0 1-10.16-10.16V45.39a10.162 10.162 0 0 1 10.16-10.16h13.54a10.162 10.162 0 0 1 10.16 10.16v13.54a10.162 10.162 0 0 1-10.16 10.16z" class="cls-5" data-name="Path 2023"/>
                </g>
                <g id="Group_735" data-name="Group 735">
                    <path id="Path_2024" d="M116.53 61.7h-13.54a10.162 10.162 0 0 1-10.16-10.16V38.01a10.162 10.162 0 0 1 10.16-10.16h13.54a10.162 10.162 0 0 1 10.16 10.16v13.54a10.153 10.153 0 0 1-10.16 10.15z" class="cls-5" data-name="Path 2024"/>
                </g>
                <g id="Group_736" data-name="Group 736">
                    <path id="Path_2025" d="M117.14 86.95H103.6a10.162 10.162 0 0 1-10.16-10.16V63.25a10.162 10.162 0 0 1 10.16-10.16h13.54a10.162 10.162 0 0 1 10.16 10.16v13.54a10.162 10.162 0 0 1-10.16 10.16z" class="cls-5" data-name="Path 2025"/>
                </g>
                <g id="Group_737" data-name="Group 737">
                    <path id="Path_2026" d="M180.91 70.98h-4.42a6.41 6.41 0 0 1-6.41-6.41V50.91a6.41 6.41 0 0 1 6.41-6.41h4.42a6.41 6.41 0 0 1 6.41 6.41v13.66a6.41 6.41 0 0 1-6.41 6.41z" class="cls-5" data-name="Path 2026"/>
                </g>
                <g id="Group_738" data-name="Group 738">
                    <path id="Path_2027" d="M158.08 130.71a8.467 8.467 0 0 1-8.47-8.47v-12a8.467 8.467 0 0 1 8.47-8.47 8.467 8.467 0 0 1 8.47 8.47v12a8.474 8.474 0 0 1-8.47 8.47z" class="cls-5" data-name="Path 2027"/>
                </g>
                <g id="Group_739" data-name="Group 739">
                    <path id="Path_2028" d="M162.7 98.68h-9.24a2.458 2.458 0 0 1-2.46-2.46 2.458 2.458 0 0 1 2.46-2.46h9.24a2.458 2.458 0 0 1 2.46 2.46 2.458 2.458 0 0 1-2.46 2.46z" class="cls-4" data-name="Path 2028"/>
                </g>
                <g id="Group_740" data-name="Group 740">
                    <path id="Path_2029" d="M107.59 130.71a8.467 8.467 0 0 1-8.47-8.47v-12a8.467 8.467 0 0 1 8.47-8.47 8.467 8.467 0 0 1 8.47 8.47v12a8.474 8.474 0 0 1-8.47 8.47z" class="cls-5" data-name="Path 2029"/>
                </g>
                <g id="Group_741" data-name="Group 741">
                    <path id="Path_2030" d="M112.21 98.68h-9.24a2.458 2.458 0 0 1-2.46-2.46 2.458 2.458 0 0 1 2.46-2.46h9.24a2.458 2.458 0 0 1 2.46 2.46 2.458 2.458 0 0 1-2.46 2.46z" class="cls-4" data-name="Path 2030"/>
                </g>
                <g id="Group_742" data-name="Group 742">
                    <path id="Path_2031" d="M135.3 137.82v4.54a1.888 1.888 0 0 1-1.89 1.89h-1.15a1.888 1.888 0 0 1-1.89-1.89v-4.54a1.888 1.888 0 0 1 1.89-1.89h1.15a1.9 1.9 0 0 1 1.89 1.89z" class="cls-4" data-name="Path 2031"/>
                </g>
                <g id="Group_746" data-name="Group 746">
                    <g id="Group_743" data-name="Group 743">
                        <path id="Path_2032" d="M172.45 139.32h-27.77a9.863 9.863 0 0 1-9.85-9.85v-46.8a9.863 9.863 0 0 1 9.85-9.85h47.47a9.863 9.863 0 0 1 9.85 9.85v27.09a29.591 29.591 0 0 1-29.55 29.56zm-27.77-59.11a2.458 2.458 0 0 0-2.46 2.46v46.8a2.458 2.458 0 0 0 2.46 2.46h27.77a22.2 22.2 0 0 0 22.17-22.17V82.67a2.458 2.458 0 0 0-2.46-2.46z" class="cls-3" data-name="Path 2032"/>
                    </g>
                    <g id="Group_744" data-name="Group 744">
                        <path id="Path_2033" d="M120.99 139.32H93.22a29.582 29.582 0 0 1-29.55-29.55v-27.1a9.863 9.863 0 0 1 9.85-9.85h47.47a9.863 9.863 0 0 1 9.85 9.85v46.8a9.863 9.863 0 0 1-9.85 9.85zM73.52 80.21a2.458 2.458 0 0 0-2.46 2.46v27.09a22.2 22.2 0 0 0 22.17 22.17H121a2.458 2.458 0 0 0 2.46-2.46v-46.8a2.458 2.458 0 0 0-2.46-2.46H73.52z" class="cls-3" data-name="Path 2033"/>
                    </g>
                    <g id="Group_745" data-name="Group 745">
                        <path id="Rectangle_750" d="M0 0h11.16v7.39H0z" class="cls-3" data-name="Rectangle 750" transform="translate(127.3 102.37)"/>
                    </g>
                </g>
                <g id="Group_752" data-name="Group 752">
                    <g id="Group_748" data-name="Group 748">
                        <g id="Group_747" data-name="Group 747">
                            <path id="Path_2034" d="M123.06 154.17a9.77 9.77 0 0 0 19.54 0v-3.03h-19.55v3.03z" class="cls-5" data-name="Path 2034"/>
                        </g>
                    </g>
                    <g id="Group_750" data-name="Group 750">
                        <g id="Group_749" data-name="Group 749">
                            <path id="Path_2035" d="M132.83 157.21a4.706 4.706 0 0 0-4.64 5.57 9.786 9.786 0 0 0 9.28 0 4.8 4.8 0 0 0 .08-.85 4.716 4.716 0 0 0-4.72-4.72z" class="cls-7" data-name="Path 2035"/>
                        </g>
                    </g>
                    <g id="Group_751" data-name="Group 751">
                        <path id="Path_2036" d="M139.85 154.51h-12.58a.491.491 0 0 1-.49-.49v-2.88h13.56v2.88a.491.491 0 0 1-.49.49z" class="cls-8" data-name="Path 2036"/>
                    </g>
                </g>
            </g>
            <g id="Group_761" data-name="Group 761">
                <g id="Group_754" data-name="Group 754">
                    <path id="Path_2037" d="M228.27 76.09a4.217 4.217 0 0 1-4-2.88 95.011 95.011 0 0 0-180.14 0 4.218 4.218 0 1 1-8-2.68 103.447 103.447 0 0 1 196.14 0 4.217 4.217 0 0 1-2.66 5.34 4.135 4.135 0 0 1-1.34.22z" class="cls-5" data-name="Path 2037"/>
                </g>
                <g id="Group_755" data-name="Group 755">
                    <path id="Path_2038" d="M112.06 204.34a4.357 4.357 0 0 1-.94-.1 103.773 103.773 0 0 1-75-67.9 4.218 4.218 0 1 1 8-2.68 95.27 95.27 0 0 0 68.86 62.35 4.217 4.217 0 0 1-.92 8.33z" class="cls-5" data-name="Path 2038"/>
                </g>
                <g id="Group_756" data-name="Group 756">
                    <path id="Path_2039" d="M46.41 71.92v63.28H29.53a8.442 8.442 0 0 1-8.44-8.44V80.35a8.442 8.442 0 0 1 8.44-8.44h16.88z" class="cls-9" data-name="Path 2039"/>
                    <path id="Path_2040" d="M46.41 139.42H29.53a12.675 12.675 0 0 1-12.66-12.66V80.35a12.675 12.675 0 0 1 12.66-12.66h16.88a4.221 4.221 0 0 1 4.22 4.22v63.28a4.229 4.229 0 0 1-4.22 4.23zM29.53 76.14a4.221 4.221 0 0 0-4.22 4.22v46.41a4.221 4.221 0 0 0 4.22 4.22h12.66V76.14z" class="cls-5" data-name="Path 2040"/>
                </g>
                <g id="Group_757" data-name="Group 757">
                    <path id="Path_2041" d="M156.75 202.65c0 7.49-10.1 13.53-22.55 13.53s-22.55-6.04-22.55-13.53a8.074 8.074 0 0 1 .41-2.53c1.94-6.27 11.14-11 22.14-11s20.2 4.74 22.14 11a7.753 7.753 0 0 1 .41 2.53z" class="cls-9" data-name="Path 2041"/>
                    <path id="Path_2042" d="M134.2 220.39c-15.01 0-26.77-7.79-26.77-17.74a12.01 12.01 0 0 1 .63-3.86c2.51-8.14 13.27-13.88 26.14-13.88s23.63 5.75 26.17 13.97a11.866 11.866 0 0 1 .6 3.77c0 9.95-11.76 17.74-26.77 17.74zm0-27.05c-9.78 0-16.89 4.08-18.11 8.03a3.83 3.83 0 0 0-.22 1.28c0 4.4 7.53 9.31 18.33 9.31s18.33-4.91 18.33-9.31a3.661 3.661 0 0 0-.19-1.19c-1.25-4.04-8.36-8.12-18.14-8.12z" class="cls-5" data-name="Path 2042"/>
                </g>
                <g id="Group_758" data-name="Group 758">
                    <path id="Path_2043" d="M244.69 80.35v46.41a8.442 8.442 0 0 1-8.44 8.44h-16.88V71.92h16.88a8.433 8.433 0 0 1 8.44 8.43z" class="cls-9" data-name="Path 2043"/>
                    <path id="Path_2044" d="M236.25 139.42h-16.88a4.221 4.221 0 0 1-4.22-4.22V71.92a4.221 4.221 0 0 1 4.22-4.22h16.88a12.675 12.675 0 0 1 12.66 12.66v46.41a12.673 12.673 0 0 1-12.66 12.65zm-12.66-8.44h12.66a4.221 4.221 0 0 0 4.22-4.22V80.35a4.221 4.221 0 0 0-4.22-4.22h-12.66z" class="cls-5" data-name="Path 2044"/>
                </g>
                <g id="Group_759" data-name="Group 759">
                    <path id="Path_2045" d="M21.09 80.35v46.41h-7.86a9.022 9.022 0 0 1-9.02-9.02V89.37a9.022 9.022 0 0 1 9.02-9.02h7.86z" class="cls-3" data-name="Path 2045"/>
                    <path id="Path_2046" d="M21.09 130.98h-7.86A13.256 13.256 0 0 1-.01 117.74V89.37a13.256 13.256 0 0 1 13.24-13.24h7.86a4.221 4.221 0 0 1 4.22 4.22v46.41a4.214 4.214 0 0 1-4.22 4.22zm-7.85-46.41a4.808 4.808 0 0 0-4.8 4.8v28.37a4.808 4.808 0 0 0 4.8 4.8h3.64V84.57z" class="cls-5" data-name="Path 2046"/>
                </g>
                <g id="Group_760" data-name="Group 760">
                    <path id="Path_2047" d="M265.78 89.37v28.37a9.022 9.022 0 0 1-9.02 9.02h-7.86V80.35h7.86a9.022 9.022 0 0 1 9.02 9.02z" class="cls-3" data-name="Path 2047"/>
                    <path id="Path_2048" d="M256.76 130.98h-7.86a4.221 4.221 0 0 1-4.22-4.22V80.35a4.221 4.221 0 0 1 4.22-4.22h7.86A13.256 13.256 0 0 1 270 89.37v28.37a13.256 13.256 0 0 1-13.24 13.24zm-3.64-8.44h3.64a4.808 4.808 0 0 0 4.8-4.8V89.37a4.808 4.808 0 0 0-4.8-4.8h-3.64v37.97z" class="cls-5" data-name="Path 2048"/>
                </g>
            </g>
        </g>
    </g>
</svg>
